<svg width="39" height="39" viewBox="0 0 39 39" fill="none" xmlns="http://www.w3.org/2000/svg">
<path d="M19.5912 18.0837V22.5172H27.073C26.708 24.3645 24.8832 28.0591 19.7737 28.0591C15.3942 28.0591 11.927 24.3645 11.927 19.931C11.927 15.4975 15.5766 11.803 19.7737 11.803C22.3285 11.803 23.9708 12.9113 24.8832 13.835L28.3504 10.5099C26.1606 8.2931 23.2409 7 19.7737 7C12.6569 7 7 12.7266 7 19.931C7 27.1355 12.6569 32.8621 19.7737 32.8621C27.073 32.8621 32 27.6897 32 20.3005C32 19.3768 32 18.8227 31.8175 18.0837H19.5912Z" fill="#1A1A1A"/>
</svg>
