<svg width="39" height="39" viewBox="0 0 39 39" fill="none" xmlns="http://www.w3.org/2000/svg">
<path d="M31.6087 6H6.21739C5.52174 6 5 6.525 5 7.225V32.95C5 33.475 5.52174 34 6.21739 34H31.7826C32.4783 34 33 33.475 33 32.775V7.225C32.8261 6.525 32.3043 6 31.6087 6ZM9.17391 29.8V16.5H13.3478V29.8H9.17391ZM11.2609 14.75C9.86956 14.75 8.82609 13.525 8.82609 12.3C8.82609 10.9 9.86956 9.85 11.2609 9.85C12.6522 9.85 13.6957 10.9 13.6957 12.3C13.5217 13.525 12.4783 14.75 11.2609 14.75ZM28.6522 29.8H24.4783V23.325C24.4783 21.75 24.4783 19.825 22.3913 19.825C20.3043 19.825 19.9565 21.575 19.9565 23.325V29.975H15.7826V16.5H19.7826V18.25C20.3043 17.2 21.6957 16.15 23.6087 16.15C27.7826 16.15 28.4783 18.95 28.4783 22.45V29.8H28.6522Z" fill="#1A1A1A"/>
</svg>
