<svg width="39" height="39" viewBox="0 0 39 39" fill="none" xmlns="http://www.w3.org/2000/svg">
<path d="M36.1111 8.9445C34.8653 9.57783 33.6195 9.78894 32.166 10.0001C33.6195 9.15561 34.6577 7.88894 35.0729 6.20005C33.8271 7.0445 32.3736 7.46672 30.7125 7.88894C29.4667 6.62228 27.5979 5.77783 25.7292 5.77783C22.1993 5.77783 19.0847 8.9445 19.0847 12.7445C19.0847 13.3778 19.0847 13.8001 19.2924 14.2223C13.6861 14.0112 8.49517 11.2667 5.17294 7.0445C4.55003 8.10005 4.34239 9.15561 4.34239 10.6334C4.34239 12.9556 5.58822 15.0667 7.45697 16.3334C6.41878 16.3334 5.38058 15.9112 4.34239 15.4889C4.34239 18.8667 6.62642 21.6112 9.741 22.2445C9.11808 22.4556 8.49517 22.4556 7.87225 22.4556C7.45697 22.4556 7.04169 22.4556 6.62642 22.2445C7.45697 24.9889 9.94864 27.1001 13.0632 27.1001C10.7792 29.0001 7.87225 30.0556 4.55003 30.0556C3.92711 30.0556 3.51183 30.0556 2.88892 30.0556C6.0035 31.9556 9.53336 33.2223 13.2709 33.2223C25.7292 33.2223 32.5813 22.6667 32.5813 13.5889C32.5813 13.3778 32.5813 12.9556 32.5813 12.7445C34.0347 11.6889 35.2806 10.4223 36.1111 8.9445Z" fill="#1A1A1A"/>
</svg>
